<svg xmlns="http://www.w3.org/2000/svg" viewBox="0 0 64 64" role="img" aria-label="ErgoVision">
  <defs>
    <linearGradient id="plate" x1="8" y1="5" x2="56" y2="59" gradientUnits="userSpaceOnUse">
      <stop stop-color="#101923"/>
      <stop offset="1" stop-color="#071016"/>
    </linearGradient>
    <linearGradient id="aqua" x1="16" y1="10" x2="50" y2="54" gradientUnits="userSpaceOnUse">
      <stop stop-color="#72f2ff"/>
      <stop offset=".52" stop-color="#42d392"/>
      <stop offset="1" stop-color="#8aa4ff"/>
    </linearGradient>
    <linearGradient id="white" x1="25" y1="16" x2="45" y2="45" gradientUnits="userSpaceOnUse">
      <stop stop-color="#ffffff"/>
      <stop offset="1" stop-color="#dffaf6"/>
    </linearGradient>
    <filter id="glow" x="-30%" y="-30%" width="160%" height="160%">
      <feDropShadow dx="0" dy="8" stdDeviation="5" flood-color="#42d392" flood-opacity=".28"/>
    </filter>
  </defs>
  <rect x="3" y="3" width="58" height="58" rx="16" fill="url(#plate)"/>
  <rect x="3.5" y="3.5" width="57" height="57" rx="15.5" fill="none" stroke="#274154"/>
  <path d="M15 46V18.5c0-2.2 1.8-4 4-4h22.5c2.2 0 4 1.8 4 4v3.8H25.2v7.1h17.4v7H25.2v7.2h20.6v3.9c0 2.2-1.8 4-4 4H20.5A5.5 5.5 0 0 1 15 46Z" fill="url(#aqua)" filter="url(#glow)"/>
  <path d="M33.8 43.7c5.6-1.7 9.5-5.5 11.7-11.4" fill="none" stroke="#071016" stroke-width="9" stroke-linecap="round" opacity=".28"/>
  <path d="M33.8 43.7c5.6-1.7 9.5-5.5 11.7-11.4" fill="none" stroke="url(#white)" stroke-width="4.2" stroke-linecap="round"/>
  <circle cx="42.5" cy="22" r="5.8" fill="url(#white)"/>
  <path d="M37.2 31.4h10.6c3.3 0 6 2.7 6 6v1.2H35.2v-5.2c0-1.1.9-2 2-2Z" fill="url(#white)"/>
  <path d="M48.8 14.2 55 10.8M52.8 20.8h7M48.8 27.5l6.2 3.5" stroke="#72f2ff" stroke-width="2.4" stroke-linecap="round" opacity=".9"/>
</svg>
